<svg xmlns="http://www.w3.org/2000/svg" width="396" height="127.49268292682926" viewBox="0 0 410 132"><defs id="SvgjsDefs1013"/><g id="SvgjsG1014" featurekey="rootContainer" transform="matrix(1,0,0,1,0,0)" fill="#222831"><rect xmlns="http://www.w3.org/2000/svg" width="410" height="132" rx="10" ry="10"/></g><g id="SvgjsG1015" featurekey="symbolFeature-0" transform="matrix(2,0,0,2,6,2)" fill="#33a3ff"><metadata xmlns="http://www.w3.org/2000/svg"><a0:sfw xmlns:a0="http://www.w3.org/2000/svg" xmlns="http://ns.adobe.com/SaveForWeb/1.0/"><a0:slices><a0:slicesourcebounds y="-8160" x="-8165" width="16389" height="16384" bottomleftorigin="true"/><a0:optimizationsettings><a0:targetsettings fileformat="PNG24Format" targetsettingsid="0"><a0:png24format transparency="true" mattecolor="" nomattecolor="false" interlaced="false" filtered="false"/></a0:targetsettings></a0:optimizationsettings></a0:slices></a0:sfw></metadata><g xmlns="http://www.w3.org/2000/svg"><path d="M56,9H8c-0.552,0-1,0.448-1,1v44c0,0.553,0.448,1,1,1h48c0.553,0,1-0.447,1-1V10C57,9.448,56.553,9,56,9z M30.707,32.707   l-10,10C20.512,42.902,20.256,43,20,43s-0.512-0.098-0.707-0.293c-0.391-0.391-0.391-1.023,0-1.414L28.586,32l-9.293-9.293   c-0.391-0.391-0.391-1.023,0-1.414s1.023-0.391,1.414,0l10,10C31.098,31.684,31.098,32.316,30.707,32.707z M44,43H34   c-0.553,0-1-0.447-1-1s0.447-1,1-1h10c0.553,0,1,0.447,1,1S44.553,43,44,43z"/></g></g><g id="SvgjsG1016" featurekey="nameFeature-0" transform="matrix(1.8912525177001953,0,0,1.8912525177001953,135.45664339818507,16.762650377315495)" fill="#ffffff"><path d="M6.6406 23.984 l6.0742 0.000019073 c1.0547 0 1.9596 -0.3776 2.7148 -1.1328 c0.74219 -0.74219 1.1133 -1.6406 1.1133 -2.6953 c0 -1.0677 -0.37109 -1.9791 -1.1133 -2.7344 c-0.75521 -0.75521 -1.6602 -1.1328 -2.7148 -1.1328 l-6.0742 0 l0 7.6953 z M6.6406 40.000019073 l-4.2383 -0.000019073 l0 -27.949 l10.313 0 c2.2266 0 4.1275 0.79428 5.7031 2.3828 c1.5885 1.5755 2.3828 3.483 2.3828 5.7227 c0 2.2266 -0.79428 4.1275 -2.3828 5.7031 c-1.5755 1.5755 -3.4766 2.3633 -5.7031 2.3633 l-6.0742 0 l0 11.777 z M24.2188 12.050999999999998 l0 27.949 l14.258 0 l0 -4.2383 l-10.02 0 l0 -23.711 l-4.2383 0 z M58.08625 12.050999999999998 l-17.676 27.949 l5.0195 0 l4.1211 -6.5234 l9.4922 0 l0 6.5234 l4.2578 0 l0 -27.949 l-5.2148 0 z M59.04325 18.477 l0 10.762 l-6.8164 0 z M67.08985625 12.050999999999998 l0 4.2383 l5.918 0 l0 23.711 l4.2578 0 l0 -23.711 l5.918 0 l0 -4.2383 l-16.094 0 z M89.62893125 18.945 c-1.9531 1.9531 -2.9297 4.31 -2.9297 7.0703 s0.97656 5.1172 2.9297 7.0703 s4.31 2.9297 7.0703 2.9297 s5.1172 -0.97656 7.0703 -2.9297 s2.9297 -4.31 2.9297 -7.0703 s-0.97656 -5.1172 -2.9297 -7.0703 s-4.31 -2.9297 -7.0703 -2.9297 s-5.1172 0.97656 -7.0703 2.9297 z M86.62113125 36.0937 c-2.7865 -2.7865 -4.1797 -6.1459 -4.1797 -10.078 s1.3932 -7.2916 4.1797 -10.078 s6.1459 -4.1797 10.078 -4.1797 s7.2916 1.3932 10.078 4.1797 s4.1797 6.1459 4.1797 10.078 s-1.3932 7.2916 -4.1797 10.078 s-6.1459 4.1797 -10.078 4.1797 s-7.2916 -1.3932 -10.078 -4.1797 z M130.33253125 12.050999999999998 l0 19.98 l-11.934 -19.98 l-4.4336 0 l0 27.949 l4.2383 0 l0 -19.98 l11.953 19.98 l4.4336 0 l0 -27.949 l-4.2578 0 z"/></g></svg>